<svg t="1725605666469" class="icon" viewBox="0 0 1024 1024" version="1.1" xmlns="http://www.w3.org/2000/svg" p-id="7238" width="200" height="200"><path d="M106.666667 512c1.834667-134.357333 25.173333-245.589333 93.397333-311.936C266.410667 131.84 377.642667 108.501333 512 106.666667c134.357333 1.834667 245.589333 25.173333 311.936 93.397333C892.16 266.410667 915.498667 377.642667 917.333333 512c-1.834667 134.357333-25.173333 245.589333-93.397333 311.936C757.589333 892.16 646.357333 915.498667 512 917.333333c-134.357333-1.834667-245.589333-25.173333-311.936-93.397333C131.84 757.589333 108.501333 646.357333 106.666667 512z" fill="#565656" p-id="7239"></path><path d="M618.666667 405.333333v213.333334h-42.666667V405.333333h42.666667z m-170.666667 0v213.333334h-42.666667V405.333333h42.666667z m-85.333333 64v85.333334h-42.666667v-85.333334h42.666667z m341.333333 0v85.333334h-42.666667v-85.333334h42.666667z m-170.666667-128v341.333334h-42.666666V341.333333h42.666666z" fill="#FFFFFF" p-id="7240"></path></svg>