<svg t="1723696126685" viewBox="0 0 1024 1024" version="1.1" xmlns="http://www.w3.org/2000/svg" p-id="23655" width="18px" height="18px"><path d="M1024 756.150857V267.849143A267.849143 267.849143 0 0 0 756.150857 0H267.849143A267.849143 267.849143 0 0 0 0 267.849143v488.301714A267.849143 267.849143 0 0 0 267.849143 1024h488.301714A267.849143 267.849143 0 0 0 1024 756.150857z" fill="#1ABC9C" p-id="23656"></path><path d="M950.857143 462.994286h-63.926857v14.299428c-11.666286-6.473143-22.418286-15.067429-34.450286-18.578285-51.309714-15.469714-102.656 18.578286-111.177143 74.166857-2.56 16.457143-2.56 34.084571-0.182857 50.505143 7.972571 56.576 48.164571 87.917714 101.339429 80.457142 16.859429-2.340571 31.305143-10.166857 44.288-23.881142 0.950857 18.395429 2.048 35.035429-7.789715 49.554285-12.214857 17.993143-31.085714 15.652571-48.896 16.054857V768c13.348571-0.768 25.965714-0.182857 38.363429-2.340571 37.595429-6.473143 65.755429-26.441143 76.873143-66.377143 4.059429-14.482286 5.193143-30.134857 5.376-45.202286 0.548571-60.306286 0.182857-120.612571 0.182857-180.882286v-10.203428z m-103.021714 144.274285c-23.515429 0-42.422857-19.968-42.422858-44.617142 0-24.868571 19.090286-44.617143 42.605715-44.434286 23.552 0.182857 42.24 20.333714 42.057143 45.019428-0.365714 24.283429-19.273143 44.032-42.24 44.032zM182.528 475.136l-7.424 5.668571v-108.836571H109.714286v288.365714h65.974857v-21.321143c11.300571 14.08 22.418286 24.246857 37.229714 27.209143 34.816 6.656 64.292571-5.705143 87.442286-32.512 28.342857-32.914286 30.939429-87.113143 8.338286-131.145143-25.965714-50.724571-83.382857-63.268571-126.171429-27.428571z m34.450286 132.132571c-23.332571 0-42.422857-20.114286-42.24-44.8 0-24.283429 18.724571-44.068571 41.874285-44.251428 23.734857-0.182857 42.605714 19.382857 42.605715 44.251428 0 24.649143-18.688 44.8-42.24 44.8zM669.988571 479.817143c-20.589714-16.822857-44.288-23.478857-70.034285-25.014857-10.020571 1.170286-20.187429 1.755429-30.208 3.693714-48.164571 9.216-78.006857 41.508571-84.114286 90.441143-6.290286 52.48 20.772571 98.852571 67.657143 113.737143 33.865143 10.605714 67.035429 6.656 99.108571-8.777143 71.68-34.852571 63.707429-136.265143 17.554286-174.08z m-76.324571 127.451428c-23.369143-0.182857-42.24-20.150857-42.057143-44.982857 0.182857-24.32 18.870857-44.068571 42.057143-44.068571 23.332571-0.182857 42.605714 19.748571 42.605714 44.434286 0.182857 24.283429-19.273143 44.617143-42.605714 44.617142zM426.898286 417.389714c-13.531429-34.852571-46.299429-54.601143-81.517715-51.492571 0 20.589714-0.182857 41.325714 0.182858 62.061714 0 1.572571 2.779429 3.913143 4.827428 4.717714 9.069714 3.510857 15.945143 9.764571 18.322286 19.382858 3.364571 13.494857 6.326857 27.428571 6.509714 41.106285 0.731429 51.858286 0.365714 103.533714 0.365714 155.428572v11.922285h62.976c0.182857-2.742857 0.365714-4.498286 0.365715-6.436571 0-61.659429 0.731429-123.136-0.548572-184.795429-0.548571-17.444571-5.193143-35.657143-11.483428-51.894857z" fill="#FFFFFF" p-id="23657"></path></svg>