<svg t="1725346490492" class="icon" viewBox="0 0 1162 1024" version="1.1" xmlns="http://www.w3.org/2000/svg" p-id="23497" width="200" height="200"><path d="M154.294673 1003.44796c291.232804 33.066452 582.460462 22.450814 873.693267-31.841769 51.354372-10.008442 100.892302-59.546372 107.489125-108.075739 25.872724-198.902995 22.502271-398.027256-10.126794-597.372784-4.02396-24.519397-18.735598-48.107417-38.479758-66.7401-106.197548-61.321648-208.849688-125.705005-304.93588-188.549789-35.109307 101.283377-79.882291 206.868583-128.694673 314.676744C554.09206 265.81805 458.144804 205.880603 368.763497 150.265568c-104.283337 54.030151-213.34191 110.370734-324.525668 164.40603-25.039116 193.103759-24.673769 386.387618 1.106332 579.851578 7.337809 52.887799 57.632161 102.82195 108.950512 108.924784z" fill="#3EC8A9" p-id="23498"></path><path d="M996.161608 42.030312C719.697045-0.051457 443.237628-8.274332 166.778211 17.351397 118.351759 22.116342 63.822472 70.486191 49.71803 123.271075-5.644864 338.784482-14.773387 554.560322 22.332462 770.61403c4.574553 26.582834 20.546894 51.940985 41.654674 71.597668 80.731337-91.316101 183.414352-195.223799 290.764542-302.121165 53.371497 53.227417 107.499417 106.732704 160.443819 159.414673 101.118714-105.214714 209.122412-211.808482 309.062754-311.579015 113.468462 107.952241 227.302271 209.251055 324.108865 293.291095 21.920804-178.160563 9.612221-356.537246-36.920603-535.124904-13.229668-48.69403-66.827578-96.240563-115.284905-104.06207z" fill="#2DB194" p-id="23499"></path><path d="M434.81407 295.879397m-105.487437 0a105.487437 105.487437 0 1 0 210.974875 0 105.487437 105.487437 0 1 0-210.974875 0Z" fill="#FFFFFF" p-id="23500"></path></svg>