<svg t="1724746627332" class="icon" viewBox="0 0 1024 1024" version="1.1" xmlns="http://www.w3.org/2000/svg" p-id="11185" width="18px" height="18px"><path d="M92.16 81.92a81.92 81.92 0 0 1 81.92-81.92h675.84a81.92 81.92 0 0 1 81.92 81.92v860.16a81.92 81.92 0 0 1-81.92 81.92H174.08a81.92 81.92 0 0 1-81.92-81.92V81.92z" fill="#36CFC9" p-id="11186"></path><path d="M92.16 81.92a81.92 81.92 0 0 1 81.92-81.92h102.4v1024H174.08a81.92 81.92 0 0 1-81.92-81.92V81.92z" fill="#08979C" p-id="11187"></path><path d="M583.68 0h235.52v327.68l-117.76-54.60992L583.68 327.68z" fill="#B5F5EC" p-id="11188"></path></svg>